<svg width="35" height="35" viewBox="0 0 35 35" fill="none" xmlns="http://www.w3.org/2000/svg">
<g id="Icons/fill/system/thumb-up-fill" clip-path="url(#clip0_1_1351)">
<g id="Group">
<path id="Vector" d="M2.91665 13.125H7.29165V30.625H2.91665C2.52987 30.625 2.15894 30.4714 1.88545 30.1979C1.61196 29.9244 1.45831 29.5535 1.45831 29.1667V14.5834C1.45831 14.1966 1.61196 13.8257 1.88545 13.5522C2.15894 13.2787 2.52987 13.125 2.91665 13.125ZM10.6356 11.2394L19.9689 1.90608C20.093 1.78168 20.2578 1.70624 20.433 1.69365C20.6082 1.68106 20.7821 1.73215 20.9227 1.83754L22.1666 2.77087C22.5121 3.03023 22.7731 3.38608 22.9166 3.79354C23.0601 4.201 23.0798 4.64184 22.9731 5.06046L21.2916 11.6667H30.625C31.3985 11.6667 32.1404 11.974 32.6874 12.521C33.2344 13.068 33.5416 13.8098 33.5416 14.5834V17.6517C33.542 18.0329 33.4677 18.4104 33.3229 18.763L28.8094 29.7223C28.6993 29.9895 28.5122 30.218 28.2721 30.3787C28.0319 30.5394 27.7494 30.6252 27.4604 30.625H11.6666C11.2799 30.625 10.9089 30.4714 10.6355 30.1979C10.362 29.9244 10.2083 29.5535 10.2083 29.1667V12.2705C10.2084 11.8837 10.3621 11.5128 10.6356 11.2394Z" fill="white"/>
</g>
</g>
<defs>
<clipPath id="clip0_1_1351">
<rect width="35" height="35" fill="white"/>
</clipPath>
</defs>
</svg>
