<svg width="18" height="18" viewBox="0 0 18 18" fill="none" xmlns="http://www.w3.org/2000/svg">
<g clip-path="url(#clip0_1_1237)">
<path d="M16.6215 4.24219C16.0489 4.49546 15.4417 4.66179 14.82 4.73569C15.4753 4.34376 15.9658 3.72695 16.2 3.00019C15.585 3.36619 14.9108 3.62269 14.208 3.76144C13.736 3.25637 13.1103 2.92141 12.4282 2.80863C11.7462 2.69584 11.046 2.81156 10.4365 3.13778C9.82695 3.464 9.34229 3.98245 9.05784 4.61253C8.77338 5.24262 8.70506 5.94902 8.8635 6.62194C7.61633 6.55943 6.39625 6.23533 5.28247 5.67069C4.16868 5.10604 3.1861 4.31347 2.3985 3.34444C2.11972 3.82328 1.97322 4.36761 1.974 4.92169C1.974 6.00919 2.5275 6.96994 3.369 7.53244C2.87101 7.51676 2.38398 7.38227 1.9485 7.14019V7.17919C1.94865 7.90346 2.19928 8.6054 2.65789 9.16598C3.1165 9.72657 3.75486 10.1113 4.46475 10.2549C4.00246 10.3802 3.51773 10.3987 3.04725 10.3089C3.2474 10.9324 3.63751 11.4776 4.16295 11.8683C4.68838 12.259 5.32285 12.4755 5.9775 12.4877C5.32686 12.9987 4.58188 13.3764 3.78516 13.5993C2.98844 13.8222 2.1556 13.8859 1.33425 13.7867C2.76802 14.7088 4.43707 15.1983 6.14175 15.1967C11.9115 15.1967 15.0668 10.4169 15.0668 6.27169C15.0668 6.13669 15.063 6.00019 15.057 5.86669C15.6712 5.42281 16.2012 4.87295 16.6223 4.24294L16.6215 4.24219Z" fill="white"/>
</g>
<defs>
<clipPath id="clip0_1_1237">
<rect width="18" height="18" fill="white"/>
</clipPath>
</defs>
</svg>
